<svg xmlns="http://www.w3.org/2000/svg" viewBox="0 0 24 24" fill="none">
  <path d="M9.5 3.5c-1.4 0-2.3.9-2.3 2.3v2.6c0 1.1-.6 1.7-1.7 1.7v3.8c1.1 0 1.7.6 1.7 1.7v2.6c0 1.4.9 2.3 2.3 2.3"
        stroke="currentColor" stroke-width="1.6" stroke-linecap="round" stroke-linejoin="round"/>
  <path d="M14.5 3.5c1.4 0 2.3.9 2.3 2.3v2.6c0 1.1.6 1.7 1.7 1.7v3.8c-1.1 0-1.7.6-1.7 1.7v2.6c0 1.4-.9 2.3-2.3 2.3"
        stroke="currentColor" stroke-width="1.6" stroke-linecap="round" stroke-linejoin="round"/>
  <circle cx="12" cy="12" r="1.3" fill="currentColor"/>
</svg>
